<svg xmlns="http://www.w3.org/2000/svg" data-name="Layer 1" viewBox="0 0 100 125" x="0px" y="0px"><title>emoji</title><path d="M50,90.5A40.5,40.5,0,1,1,90.5,50,40.55,40.55,0,0,1,50,90.5Zm0-76A35.5,35.5,0,1,0,85.5,50,35.54,35.54,0,0,0,50,14.5Z"/><path d="M50,75.35A25.62,25.62,0,0,1,29.46,65l4-3a20.5,20.5,0,0,0,33,0l4,3A25.61,25.61,0,0,1,50,75.35Z"/><path d="M35.68,54.3A14.87,14.87,0,0,1,25.1,49.91l3.54-3.54a10,10,0,0,0,14.1,0l3.54,3.54A14.87,14.87,0,0,1,35.68,54.3Z"/><path d="M64.38,54.35A14.92,14.92,0,0,1,53.79,50l3.54-3.54a10,10,0,0,0,14.1,0L75,50A14.92,14.92,0,0,1,64.38,54.35Z"/></svg>