<?xml version="1.0" encoding="UTF-8" standalone="no"?>
<!-- Created with Inkscape (http://www.inkscape.org/) -->

<svg
   xmlns:dc="http://purl.org/dc/elements/1.1/"
   xmlns:cc="http://creativecommons.org/ns#"
   xmlns:rdf="http://www.w3.org/1999/02/22-rdf-syntax-ns#"
   xmlns:svg="http://www.w3.org/2000/svg"
   xmlns="http://www.w3.org/2000/svg"
   version="1.1"
   width="100%"
   height="100%"
   viewBox="0 0 81 81"
   id="svg2">
  <title
     id="title4">emoji</title>
  <metadata
     id="metadata18">
    <rdf:RDF>
      <cc:Work
         rdf:about="">
        <dc:format>image/svg+xml</dc:format>
        <dc:type
           rdf:resource="http://purl.org/dc/dcmitype/StillImage" />
        <dc:title>emoji</dc:title>
      </cc:Work>
    </rdf:RDF>
  </metadata>
  <defs
     id="defs16" />
  <path
     d="M 40.5,81 A 40.5,40.5 0 1 1 81,40.5 40.55,40.55 0 0 1 40.5,81 z m 0,-76 A 35.5,35.5 0 1 0 76,40.5 35.54,35.54 0 0 0 40.5,5 z"
     id="path6" />
  <path
     d="M 40.5,65.85 A 25.62,25.62 0 0 1 19.96,55.5 l 4,-3 a 20.5,20.5 0 0 0 33,0 l 4,3 A 25.61,25.61 0 0 1 40.5,65.85 z"
     id="path8" />
  <path
     d="M 26.18,44.8 A 14.87,14.87 0 0 1 15.6,40.41 l 3.54,-3.54 a 10,10 0 0 0 14.1,0 l 3.54,3.54 a 14.87,14.87 0 0 1 -10.6,4.39 z"
     id="path10" />
  <path
     d="M 54.88,44.85 A 14.92,14.92 0 0 1 44.29,40.5 l 3.54,-3.54 a 10,10 0 0 0 14.1,0 l 3.57,3.54 a 14.92,14.92 0 0 1 -10.62,4.35 z"
     id="path12" />
</svg>
